<mxfile host="app.diagrams.net" agent="Mozilla/5.0 (X11; Linux x86_64; rv:135.0) Gecko/20100101 Firefox/135.0" version="26.0.15">
  <diagram name="Seite-1" id="-BVQS_khL0b18SeOBO56">
    <mxGraphModel dx="1434" dy="766" grid="1" gridSize="10" guides="1" tooltips="1" connect="1" arrows="1" fold="1" page="0" pageScale="1" pageWidth="827" pageHeight="1169" math="0" shadow="0">
      <root>
        <mxCell id="0" />
        <mxCell id="1" parent="0" />
        <mxCell id="tDU4n_3eCwvrb2goQz2S-1" value="" style="verticalLabelPosition=bottom;sketch=0;aspect=fixed;html=1;verticalAlign=top;strokeColor=none;align=center;outlineConnect=0;shape=mxgraph.citrix.laptop_2;fillColor=none;" vertex="1" parent="1">
          <mxGeometry x="80" y="315" width="116" height="86.5" as="geometry" />
        </mxCell>
        <mxCell id="tDU4n_3eCwvrb2goQz2S-3" value="&lt;div&gt;Middleware&lt;/div&gt;&lt;div&gt;Funktion&lt;/div&gt;" style="rounded=1;whiteSpace=wrap;html=1;fillColor=#FFF8F2;strokeColor=#B5A4A4;fontStyle=2" vertex="1" parent="1">
          <mxGeometry x="320" y="330" width="120" height="50.12" as="geometry" />
        </mxCell>
        <mxCell id="tDU4n_3eCwvrb2goQz2S-4" value="&lt;div&gt;Middleware&lt;/div&gt;&lt;div&gt;Funktion&lt;/div&gt;" style="rounded=1;whiteSpace=wrap;html=1;fillColor=#FFF8F2;strokeColor=#B5A4A4;fontStyle=2" vertex="1" parent="1">
          <mxGeometry x="550" y="330" width="120" height="50.12" as="geometry" />
        </mxCell>
        <mxCell id="tDU4n_3eCwvrb2goQz2S-5" value="&lt;div&gt;Handler&lt;/div&gt;&lt;div&gt;Funktion&lt;/div&gt;" style="rounded=1;whiteSpace=wrap;html=1;fillColor=#ffe6cc;strokeColor=#d79b00;fontStyle=1" vertex="1" parent="1">
          <mxGeometry x="780" y="330" width="120" height="50.12" as="geometry" />
        </mxCell>
        <mxCell id="tDU4n_3eCwvrb2goQz2S-6" value="" style="endArrow=classic;html=1;rounded=0;strokeColor=#000099;" edge="1" parent="1">
          <mxGeometry width="50" height="50" relative="1" as="geometry">
            <mxPoint x="220" y="340" as="sourcePoint" />
            <mxPoint x="310" y="340" as="targetPoint" />
          </mxGeometry>
        </mxCell>
        <mxCell id="tDU4n_3eCwvrb2goQz2S-7" value="" style="endArrow=classic;html=1;rounded=0;strokeColor=#CC0000;" edge="1" parent="1">
          <mxGeometry width="50" height="50" relative="1" as="geometry">
            <mxPoint x="310" y="370" as="sourcePoint" />
            <mxPoint x="220" y="370" as="targetPoint" />
          </mxGeometry>
        </mxCell>
        <mxCell id="tDU4n_3eCwvrb2goQz2S-8" value="Request" style="text;html=1;align=center;verticalAlign=middle;resizable=0;points=[];autosize=1;strokeColor=none;fillColor=none;" vertex="1" parent="1">
          <mxGeometry x="210" y="315" width="70" height="30" as="geometry" />
        </mxCell>
        <mxCell id="tDU4n_3eCwvrb2goQz2S-9" value="Response" style="text;html=1;align=center;verticalAlign=middle;resizable=0;points=[];autosize=1;strokeColor=none;fillColor=none;" vertex="1" parent="1">
          <mxGeometry x="240" y="364" width="80" height="30" as="geometry" />
        </mxCell>
        <mxCell id="tDU4n_3eCwvrb2goQz2S-11" value="" style="endArrow=classic;html=1;rounded=0;strokeColor=#000099;" edge="1" parent="1">
          <mxGeometry width="50" height="50" relative="1" as="geometry">
            <mxPoint x="450" y="340" as="sourcePoint" />
            <mxPoint x="540" y="340" as="targetPoint" />
          </mxGeometry>
        </mxCell>
        <mxCell id="tDU4n_3eCwvrb2goQz2S-12" value="next()" style="text;html=1;align=center;verticalAlign=middle;resizable=0;points=[];autosize=1;strokeColor=none;fillColor=none;" vertex="1" parent="1">
          <mxGeometry x="440" y="315" width="60" height="30" as="geometry" />
        </mxCell>
        <mxCell id="tDU4n_3eCwvrb2goQz2S-13" value="" style="endArrow=classic;html=1;rounded=0;strokeColor=#000099;" edge="1" parent="1">
          <mxGeometry width="50" height="50" relative="1" as="geometry">
            <mxPoint x="680" y="340" as="sourcePoint" />
            <mxPoint x="770" y="340" as="targetPoint" />
          </mxGeometry>
        </mxCell>
        <mxCell id="tDU4n_3eCwvrb2goQz2S-14" value="next()" style="text;html=1;align=center;verticalAlign=middle;resizable=0;points=[];autosize=1;strokeColor=none;fillColor=none;" vertex="1" parent="1">
          <mxGeometry x="670" y="315" width="60" height="30" as="geometry" />
        </mxCell>
        <mxCell id="tDU4n_3eCwvrb2goQz2S-15" value="" style="endArrow=classic;html=1;rounded=0;strokeColor=#CC0000;" edge="1" parent="1">
          <mxGeometry width="50" height="50" relative="1" as="geometry">
            <mxPoint x="540" y="370" as="sourcePoint" />
            <mxPoint x="450" y="370" as="targetPoint" />
          </mxGeometry>
        </mxCell>
        <mxCell id="tDU4n_3eCwvrb2goQz2S-17" value="" style="endArrow=classic;html=1;rounded=0;strokeColor=#CC0000;" edge="1" parent="1">
          <mxGeometry width="50" height="50" relative="1" as="geometry">
            <mxPoint x="770" y="370" as="sourcePoint" />
            <mxPoint x="680" y="370" as="targetPoint" />
          </mxGeometry>
        </mxCell>
      </root>
    </mxGraphModel>
  </diagram>
</mxfile>
